<svg width="16" height="16" viewBox="0 0 16 16" fill="none" xmlns="http://www.w3.org/2000/svg">
<g clip-path="url(#clip0_105_2282)">
<path d="M6.00001 8.00016L7.33334 9.3335L10.3333 6.3335M11.9341 3.3325C12.0714 3.66452 12.3349 3.92843 12.6667 4.06621L13.8302 4.54815C14.1622 4.68568 14.426 4.94949 14.5635 5.28154C14.7011 5.61358 14.7011 5.98666 14.5635 6.3187L14.082 7.48136C13.9444 7.81355 13.9442 8.18701 14.0824 8.51904L14.5631 9.68136C14.6313 9.84582 14.6664 10.0221 14.6664 10.2001C14.6665 10.3782 14.6314 10.5544 14.5633 10.7189C14.4952 10.8834 14.3953 11.0328 14.2694 11.1587C14.1435 11.2846 13.994 11.3844 13.8295 11.4525L12.6669 11.9341C12.3349 12.0714 12.071 12.3349 11.9332 12.6667L11.4513 13.8302C11.3138 14.1622 11.05 14.426 10.7179 14.5636C10.3859 14.7011 10.0129 14.7011 9.68082 14.5636L8.5182 14.082C8.18616 13.9448 7.81323 13.9451 7.48139 14.0828L6.31794 14.564C5.98609 14.7012 5.61335 14.7011 5.28159 14.5637C4.94983 14.4263 4.68618 14.1628 4.54855 13.8311L4.06649 12.6672C3.92921 12.3352 3.66571 12.0713 3.33391 11.9335L2.17045 11.4516C1.83857 11.3141 1.57485 11.0505 1.43727 10.7186C1.29968 10.3868 1.2995 10.0138 1.43675 9.68186L1.91832 8.5192C2.05551 8.18714 2.05523 7.8142 1.91754 7.48235L1.43666 6.31802C1.36848 6.15356 1.33337 5.97728 1.33334 5.79925C1.33331 5.62122 1.36837 5.44493 1.43649 5.28045C1.50462 5.11597 1.60449 4.96653 1.73039 4.84066C1.85629 4.7148 2.00576 4.61498 2.17025 4.5469L3.33287 4.06531C3.66459 3.92814 3.92833 3.66496 4.06621 3.33353L4.54813 2.17004C4.68566 1.83799 4.94946 1.57419 5.28149 1.43665C5.61352 1.29911 5.98659 1.29911 6.31862 1.43665L7.48124 1.91824C7.81328 2.05544 8.18621 2.05516 8.51805 1.91746L9.68199 1.4374C10.014 1.29994 10.387 1.29996 10.7189 1.43747C11.0509 1.57498 11.3147 1.83872 11.4522 2.17067L11.9343 3.33452L11.9341 3.3325Z" stroke="#17B26A" stroke-width="1.33333" stroke-linecap="round" stroke-linejoin="round"/>
</g>
<defs>
<clipPath id="clip0_105_2282">
<rect width="16" height="16" fill="white"/>
</clipPath>
</defs>
</svg>
