<svg width="20" height="20" viewBox="0 0 20 20" fill="none" xmlns="http://www.w3.org/2000/svg">
<path d="M5.00008 8.33317V11.6665M15.0001 8.33317V11.6665M1.66675 6.83317L1.66675 13.1665C1.66675 14.0999 1.66675 14.5666 1.8484 14.9232C2.00819 15.2368 2.26316 15.4917 2.57676 15.6515C2.93328 15.8332 3.39999 15.8332 4.33341 15.8332L15.6667 15.8332C16.6002 15.8332 17.0669 15.8332 17.4234 15.6515C17.737 15.4917 17.992 15.2368 18.1518 14.9232C18.3334 14.5666 18.3334 14.0999 18.3334 13.1665V6.83317C18.3334 5.89975 18.3334 5.43304 18.1518 5.07652C17.992 4.76292 17.737 4.50795 17.4234 4.34816C17.0669 4.16651 16.6002 4.16651 15.6667 4.1665L4.33342 4.1665C3.39999 4.1665 2.93328 4.1665 2.57676 4.34816C2.26316 4.50795 2.00819 4.76292 1.8484 5.07652C1.66675 5.43304 1.66675 5.89975 1.66675 6.83317ZM12.0834 9.99984C12.0834 11.1504 11.1507 12.0832 10.0001 12.0832C8.84949 12.0832 7.91675 11.1504 7.91675 9.99984C7.91675 8.84924 8.84949 7.9165 10.0001 7.9165C11.1507 7.9165 12.0834 8.84924 12.0834 9.99984Z" stroke="#17B26A" stroke-width="1.66667" stroke-linecap="round" stroke-linejoin="round"/>
</svg>
