<svg width="20" height="20" viewBox="0 0 20 20" fill="none" xmlns="http://www.w3.org/2000/svg">
<path fill-rule="evenodd" clip-rule="evenodd" d="M9.88511 1.66667H10.1144C10.7772 1.66631 11.2694 1.66604 11.6958 1.78029C12.8461 2.08851 13.7446 2.987 14.0528 4.13731C14.1215 4.39351 14.1488 4.67349 14.1596 4.99996H15.6985C16.1378 4.99995 16.5167 4.99993 16.8289 5.02544C17.1583 5.05235 17.486 5.11178 17.8013 5.27245C18.2717 5.51213 18.6542 5.89458 18.8939 6.36498C19.0545 6.6803 19.114 7.00798 19.1409 7.33744C19.1664 7.64958 19.1664 8.02854 19.1663 8.46782V14.8654C19.1664 15.3047 19.1664 15.6837 19.1409 15.9958C19.114 16.3253 19.0545 16.653 18.8939 16.9683C18.6542 17.4387 18.2717 17.8211 17.8013 18.0608C17.486 18.2215 17.1583 18.2809 16.8289 18.3078C16.5167 18.3333 16.1378 18.3333 15.6985 18.3333H4.30091C3.86165 18.3333 3.48261 18.3333 3.17049 18.3078C2.84103 18.2809 2.51335 18.2215 2.19803 18.0608C1.72763 17.8211 1.34518 17.4387 1.10549 16.9683C0.944832 16.653 0.885402 16.3253 0.858485 15.9958C0.832982 15.6837 0.832994 15.3047 0.833008 14.8655V8.46784C0.832994 8.02857 0.832982 7.64957 0.858485 7.33744C0.885402 7.00798 0.944832 6.6803 1.10549 6.36498C1.34518 5.89458 1.72763 5.51213 2.19803 5.27245C2.51335 5.11178 2.84103 5.05235 3.17049 5.02544C3.48263 4.99993 3.8616 4.99995 4.30089 4.99996H5.83994C5.85072 4.67349 5.87802 4.39351 5.94667 4.13731C6.25489 2.987 7.15339 2.08851 8.30369 1.78029C8.73007 1.66604 9.22229 1.66631 9.88511 1.66667ZM12.4915 4.99996H7.50798C7.51563 4.78537 7.53002 4.66765 7.55655 4.56868C7.71066 3.99352 8.1599 3.54428 8.73506 3.39016C8.92029 3.34053 9.17113 3.33337 9.99976 3.33337C10.8284 3.33337 11.0792 3.34053 11.2645 3.39016C11.8396 3.54428 12.2889 3.99352 12.443 4.56868C12.4695 4.66765 12.4839 4.78537 12.4915 4.99996Z" fill="#255A5A"/>
</svg>
