<svg width="16" height="16" viewBox="0 0 16 16" fill="none" xmlns="http://www.w3.org/2000/svg">
<g clip-path="url(#clip0_106_3222)">
<path d="M7.99998 14.6668C11.6819 14.6668 14.6666 11.6821 14.6666 8.00016C14.6666 4.31826 11.6819 1.3335 7.99998 1.3335C4.31808 1.3335 1.33331 4.31826 1.33331 8.00016C1.33331 11.6821 4.31808 14.6668 7.99998 14.6668Z" stroke="#9E77ED" stroke-width="1.33333" stroke-linecap="round" stroke-linejoin="round"/>
<path d="M7.99998 12.0002C10.2091 12.0002 12 10.2093 12 8.00016C12 5.79102 10.2091 4.00016 7.99998 4.00016C5.79084 4.00016 3.99998 5.79102 3.99998 8.00016C3.99998 10.2093 5.79084 12.0002 7.99998 12.0002Z" stroke="#9E77ED" stroke-width="1.33333" stroke-linecap="round" stroke-linejoin="round"/>
<path d="M7.99998 9.3335C8.73636 9.3335 9.33331 8.73654 9.33331 8.00016C9.33331 7.26378 8.73636 6.66683 7.99998 6.66683C7.2636 6.66683 6.66665 7.26378 6.66665 8.00016C6.66665 8.73654 7.2636 9.3335 7.99998 9.3335Z" stroke="#9E77ED" stroke-width="1.33333" stroke-linecap="round" stroke-linejoin="round"/>
</g>
<defs>
<clipPath id="clip0_106_3222">
<rect width="16" height="16" fill="white"/>
</clipPath>
</defs>
</svg>
