<svg width="20" height="20" viewBox="0 0 20 20" fill="none" xmlns="http://www.w3.org/2000/svg">
<path fill-rule="evenodd" clip-rule="evenodd" d="M10.3808 1.038C10.1303 0.979197 9.86958 0.979197 9.61908 1.038C9.32901 1.10608 9.076 1.27197 8.8746 1.40401L1.77251 6.02043C1.60104 6.13106 1.38532 6.27024 1.22102 6.46685C1.07885 6.63699 0.972056 6.83377 0.90689 7.04569C0.831578 7.29061 0.832451 7.54733 0.833145 7.75139V12.2486C0.832451 12.4527 0.831578 12.7094 0.90689 12.9543C0.972056 13.1662 1.07885 13.363 1.22102 13.5331C1.38532 13.7297 1.60104 13.8689 1.77251 13.9796L8.8746 18.596C9.076 18.728 9.32901 18.8939 9.61908 18.962C9.86958 19.0208 10.1303 19.0208 10.3808 18.962C10.6709 18.8939 10.9239 18.728 11.1253 18.596L18.2274 13.9796C18.3988 13.8689 18.6146 13.7297 18.7789 13.5331C18.921 13.363 19.0278 13.1662 19.093 12.9543C19.1683 12.7094 19.1674 12.4527 19.1667 12.2486V7.75139C19.1674 7.54733 19.1683 7.29061 19.093 7.04569C19.0278 6.83377 18.921 6.63699 18.7789 6.46685C18.6146 6.27023 18.3988 6.13106 18.2274 6.02042L11.1253 1.40401C10.9239 1.27197 10.6709 1.10608 10.3808 1.038ZM2.49994 8.61901L2.50345 12.4625L9.1666 16.7977V12.944L2.49994 8.61901ZM10.8333 16.7978L17.4967 12.4582L17.4999 8.61898L10.8333 12.944V16.7978Z" fill="#255A5A"/>
</svg>
