<svg width="16" height="16" viewBox="0 0 16 16" fill="none" xmlns="http://www.w3.org/2000/svg">
<path d="M8.66668 1.99967C8.66668 1.63148 8.3682 1.33301 8.00001 1.33301C7.63182 1.33301 7.33334 1.63148 7.33334 1.99967V8.3902L5.13808 6.19494C4.87773 5.93459 4.45562 5.93459 4.19527 6.19494C3.93492 6.45529 3.93492 6.8774 4.19527 7.13775L7.52861 10.4711C7.78896 10.7314 8.21107 10.7314 8.47141 10.4711L11.8047 7.13775C12.0651 6.8774 12.0651 6.45529 11.8047 6.19494C11.5444 5.93459 11.1223 5.93459 10.8619 6.19494L8.66668 8.3902V1.99967Z" fill="#255A5A"/>
<path d="M2.00001 9.33301C2.3682 9.33301 2.66668 9.63148 2.66668 9.99967V10.7997C2.66668 11.3707 2.6672 11.7589 2.69171 12.059C2.71559 12.3513 2.75888 12.5007 2.812 12.605C2.93983 12.8559 3.14381 13.0599 3.39469 13.1877C3.49896 13.2408 3.64843 13.2841 3.9407 13.308C4.24076 13.3325 4.62896 13.333 5.20001 13.333H10.8C11.3711 13.333 11.7593 13.3325 12.0593 13.308C12.3516 13.2841 12.5011 13.2408 12.6053 13.1877C12.8562 13.0599 13.0602 12.8559 13.188 12.605C13.2411 12.5007 13.2844 12.3513 13.3083 12.059C13.3328 11.7589 13.3333 11.3707 13.3333 10.7997V9.99967C13.3333 9.63148 13.6318 9.33301 14 9.33301C14.3682 9.33301 14.6667 9.63148 14.6667 9.99967V10.8272C14.6667 11.3639 14.6667 11.8068 14.6372 12.1676C14.6066 12.5423 14.5409 12.8868 14.376 13.2103C14.1204 13.7121 13.7124 14.12 13.2107 14.3757C12.8871 14.5406 12.5426 14.6063 12.1679 14.6369C11.8071 14.6664 11.3642 14.6664 10.8275 14.6663H5.17248C4.63583 14.6664 4.19292 14.6664 3.83213 14.6369C3.4574 14.6063 3.11293 14.5406 2.78937 14.3757C2.2876 14.12 1.87966 13.7121 1.62399 13.2103C1.45913 12.8868 1.39342 12.5423 1.36281 12.1676C1.33333 11.8068 1.33334 11.3639 1.33334 10.8272V9.99967C1.33334 9.63148 1.63182 9.33301 2.00001 9.33301Z" fill="#255A5A"/>
</svg>
