<svg width="18" height="18" viewBox="0 0 18 18" fill="none" xmlns="http://www.w3.org/2000/svg">
<path d="M6.3 2.25H3.45C3.02996 2.25 2.81994 2.25 2.65951 2.33175C2.51839 2.40365 2.40365 2.51839 2.33175 2.65951C2.25 2.81994 2.25 3.02996 2.25 3.45V6.3C2.25 6.72004 2.25 6.93006 2.33175 7.09049C2.40365 7.23161 2.51839 7.34635 2.65951 7.41825C2.81994 7.5 3.02996 7.5 3.45 7.5H6.3C6.72004 7.5 6.93006 7.5 7.09049 7.41825C7.23161 7.34635 7.34635 7.23161 7.41825 7.09049C7.5 6.93006 7.5 6.72004 7.5 6.3V3.45C7.5 3.02996 7.5 2.81994 7.41825 2.65951C7.34635 2.51839 7.23161 2.40365 7.09049 2.33175C6.93006 2.25 6.72004 2.25 6.3 2.25Z" stroke="#717680" stroke-width="1.45" stroke-linecap="round" stroke-linejoin="round"/>
<path d="M14.55 2.25H11.7C11.28 2.25 11.0699 2.25 10.9095 2.33175C10.7684 2.40365 10.6536 2.51839 10.5817 2.65951C10.5 2.81994 10.5 3.02996 10.5 3.45V6.3C10.5 6.72004 10.5 6.93006 10.5817 7.09049C10.6536 7.23161 10.7684 7.34635 10.9095 7.41825C11.0699 7.5 11.28 7.5 11.7 7.5H14.55C14.97 7.5 15.1801 7.5 15.3405 7.41825C15.4816 7.34635 15.5963 7.23161 15.6683 7.09049C15.75 6.93006 15.75 6.72004 15.75 6.3V3.45C15.75 3.02996 15.75 2.81994 15.6683 2.65951C15.5963 2.51839 15.4816 2.40365 15.3405 2.33175C15.1801 2.25 14.97 2.25 14.55 2.25Z" stroke="#717680" stroke-width="1.45" stroke-linecap="round" stroke-linejoin="round"/>
<path d="M14.55 10.5H11.7C11.28 10.5 11.0699 10.5 10.9095 10.5817C10.7684 10.6536 10.6536 10.7684 10.5817 10.9095C10.5 11.0699 10.5 11.28 10.5 11.7V14.55C10.5 14.97 10.5 15.1801 10.5817 15.3405C10.6536 15.4816 10.7684 15.5963 10.9095 15.6683C11.0699 15.75 11.28 15.75 11.7 15.75H14.55C14.97 15.75 15.1801 15.75 15.3405 15.6683C15.4816 15.5963 15.5963 15.4816 15.6683 15.3405C15.75 15.1801 15.75 14.97 15.75 14.55V11.7C15.75 11.28 15.75 11.0699 15.6683 10.9095C15.5963 10.7684 15.4816 10.6536 15.3405 10.5817C15.1801 10.5 14.97 10.5 14.55 10.5Z" stroke="#717680" stroke-width="1.45" stroke-linecap="round" stroke-linejoin="round"/>
<path d="M6.3 10.5H3.45C3.02996 10.5 2.81994 10.5 2.65951 10.5817C2.51839 10.6536 2.40365 10.7684 2.33175 10.9095C2.25 11.0699 2.25 11.28 2.25 11.7V14.55C2.25 14.97 2.25 15.1801 2.33175 15.3405C2.40365 15.4816 2.51839 15.5963 2.65951 15.6683C2.81994 15.75 3.02996 15.75 3.45 15.75H6.3C6.72004 15.75 6.93006 15.75 7.09049 15.6683C7.23161 15.5963 7.34635 15.4816 7.41825 15.3405C7.5 15.1801 7.5 14.97 7.5 14.55V11.7C7.5 11.28 7.5 11.0699 7.41825 10.9095C7.34635 10.7684 7.23161 10.6536 7.09049 10.5817C6.93006 10.5 6.72004 10.5 6.3 10.5Z" stroke="#717680" stroke-width="1.45" stroke-linecap="round" stroke-linejoin="round"/>
</svg>
