<svg width="20" height="20" viewBox="0 0 20 20" fill="none" xmlns="http://www.w3.org/2000/svg">
<path fill-rule="evenodd" clip-rule="evenodd" d="M10.8333 1.67969C10.8333 1.65777 10.8333 1.64681 10.8324 1.62694C10.8127 1.21545 10.4509 0.853774 10.0394 0.834307C10.0195 0.833368 10.013 0.83337 10 0.833375H7.29888C6.6281 0.833366 6.07446 0.833358 5.62348 0.870205C5.15507 0.908476 4.72448 0.990613 4.32003 1.19669C3.69283 1.51627 3.18289 2.0262 2.86331 2.65341C2.65724 3.05785 2.5751 3.48844 2.53683 3.95686C2.49998 4.40784 2.49999 4.96148 2.5 5.63227V14.3678C2.49999 15.0386 2.49998 15.5922 2.53683 16.0432C2.5751 16.5116 2.65724 16.9422 2.86331 17.3467C3.18289 17.9739 3.69283 18.4838 4.32003 18.8034C4.72448 19.0095 5.15507 19.0916 5.62348 19.1299C6.07447 19.1667 6.6281 19.1667 7.2989 19.1667H12.7011C13.3719 19.1667 13.9255 19.1667 14.3765 19.1299C14.8449 19.0916 15.2755 19.0095 15.68 18.8034C16.3072 18.4838 16.8171 17.9739 17.1367 17.3467C17.3428 16.9422 17.4249 16.5116 17.4632 16.0432C17.5 15.5922 17.5 15.0386 17.5 14.3678V8.33332C17.5 8.32038 17.5 8.31391 17.4991 8.29406C17.4796 7.88253 17.1179 7.52064 16.7064 7.501C16.6865 7.50005 16.6756 7.50005 16.6538 7.50005L12.9734 7.50005C12.7631 7.50008 12.5583 7.5001 12.3848 7.48593C12.1943 7.47037 11.9695 7.43364 11.7434 7.3184C11.4298 7.15861 11.1748 6.90364 11.015 6.59003C10.8997 6.36385 10.863 6.13907 10.8475 5.94858C10.8333 5.77511 10.8333 5.57028 10.8333 5.35997L10.8333 1.67969ZM6.66667 10.8334C6.20643 10.8334 5.83333 11.2065 5.83333 11.6667C5.83333 12.1269 6.20643 12.5 6.66667 12.5H13.3333C13.7936 12.5 14.1667 12.1269 14.1667 11.6667C14.1667 11.2065 13.7936 10.8334 13.3333 10.8334H6.66667ZM6.66667 14.1667C6.20643 14.1667 5.83333 14.5398 5.83333 15C5.83333 15.4603 6.20643 15.8334 6.66667 15.8334H11.6667C12.1269 15.8334 12.5 15.4603 12.5 15C12.5 14.5398 12.1269 14.1667 11.6667 14.1667H6.66667Z" fill="#255A5A"/>
<path d="M15.7566 5.83337C16.0013 5.83337 16.1237 5.83337 16.2239 5.77193C16.3654 5.68516 16.45 5.48074 16.4112 5.31932C16.3838 5.20502 16.304 5.12532 16.1444 4.9659L13.3675 2.18897C13.2081 2.0294 13.1284 1.94962 13.0141 1.92214C12.8526 1.88334 12.6482 1.96796 12.5614 2.10949C12.5 2.20971 12.5 2.33206 12.5 2.57674L12.5 5.16668C12.5 5.40002 12.5 5.5167 12.5454 5.60582C12.5854 5.68422 12.6491 5.74797 12.7275 5.78791C12.8166 5.83333 12.9333 5.83333 13.1667 5.83333L15.7566 5.83337Z" fill="#255A5A"/>
</svg>
