<svg width="20" height="20" viewBox="0 0 20 20" fill="none" xmlns="http://www.w3.org/2000/svg">
<path d="M11.6667 1.8916V5.33372C11.6667 5.80043 11.6667 6.03378 11.7575 6.21204C11.8374 6.36885 11.9649 6.49633 12.1217 6.57622C12.3 6.66705 12.5333 6.66705 13 6.66705H16.4422M11.6667 14.167H6.66671M13.3334 10.8337H6.66671M16.6667 8.32385V14.3337C16.6667 15.7338 16.6667 16.4339 16.3942 16.9686C16.1545 17.439 15.7721 17.8215 15.3017 18.0612C14.7669 18.3337 14.0668 18.3337 12.6667 18.3337H7.33337C5.93324 18.3337 5.23318 18.3337 4.6984 18.0612C4.22799 17.8215 3.84554 17.439 3.60586 16.9686C3.33337 16.4339 3.33337 15.7338 3.33337 14.3337V5.66699C3.33337 4.26686 3.33337 3.5668 3.60586 3.03202C3.84554 2.56161 4.22799 2.17916 4.6984 1.93948C5.23318 1.66699 5.93324 1.66699 7.33337 1.66699H10.0099C10.6213 1.66699 10.9271 1.66699 11.2148 1.73607C11.4699 1.79731 11.7137 1.89832 11.9374 2.03539C12.1897 2.19 12.4059 2.40619 12.8383 2.83857L15.4951 5.49542C15.9275 5.9278 16.1437 6.14399 16.2983 6.39628C16.4354 6.61996 16.5364 6.86382 16.5976 7.11891C16.6667 7.40663 16.6667 7.71237 16.6667 8.32385Z" stroke="#535862" stroke-width="1.66667" stroke-linecap="round" stroke-linejoin="round"/>
</svg>
