<svg width="20" height="20" viewBox="0 0 20 20" fill="none" xmlns="http://www.w3.org/2000/svg">
<path d="M11.6668 1.8916V5.33372C11.6668 5.80043 11.6668 6.03378 11.7577 6.21204C11.8376 6.36885 11.965 6.49633 12.1218 6.57622C12.3001 6.66705 12.5335 6.66705 13.0002 6.66705H16.4423M11.6668 14.167H6.66683M13.3335 10.8337H6.66683M16.6668 8.32385V14.3337C16.6668 15.7338 16.6668 16.4339 16.3943 16.9686C16.1547 17.439 15.7722 17.8215 15.3018 18.0612C14.767 18.3337 14.067 18.3337 12.6668 18.3337H7.3335C5.93336 18.3337 5.2333 18.3337 4.69852 18.0612C4.22811 17.8215 3.84566 17.439 3.60598 16.9686C3.3335 16.4339 3.3335 15.7338 3.3335 14.3337V5.66699C3.3335 4.26686 3.3335 3.5668 3.60598 3.03202C3.84566 2.56161 4.22811 2.17916 4.69852 1.93948C5.2333 1.66699 5.93336 1.66699 7.3335 1.66699H10.01C10.6215 1.66699 10.9272 1.66699 11.2149 1.73607C11.47 1.79731 11.7139 1.89832 11.9375 2.03539C12.1898 2.19 12.406 2.40619 12.8384 2.83857L15.4953 5.49542C15.9276 5.9278 16.1438 6.14399 16.2984 6.39628C16.4355 6.61996 16.5365 6.86382 16.5978 7.11891C16.6668 7.40663 16.6668 7.71237 16.6668 8.32385Z" stroke="#255A5A" stroke-width="1.66667" stroke-linecap="round" stroke-linejoin="round"/>
</svg>
