<svg width="20" height="20" viewBox="0 0 20 20" fill="none" xmlns="http://www.w3.org/2000/svg">
<path d="M11.6667 9.16602H6.66671M8.33337 12.4993H6.66671M13.3334 5.83268H6.66671M16.6667 5.66602V14.3327C16.6667 15.7328 16.6667 16.4329 16.3942 16.9677C16.1545 17.4381 15.7721 17.8205 15.3017 18.0602C14.7669 18.3327 14.0668 18.3327 12.6667 18.3327H7.33337C5.93324 18.3327 5.23318 18.3327 4.6984 18.0602C4.22799 17.8205 3.84554 17.4381 3.60586 16.9677C3.33337 16.4329 3.33337 15.7328 3.33337 14.3327V5.66602C3.33337 4.26588 3.33337 3.56582 3.60586 3.03104C3.84554 2.56063 4.22799 2.17818 4.6984 1.9385C5.23318 1.66602 5.93324 1.66602 7.33337 1.66602H12.6667C14.0668 1.66602 14.7669 1.66602 15.3017 1.9385C15.7721 2.17818 16.1545 2.56063 16.3942 3.03104C16.6667 3.56582 16.6667 4.26588 16.6667 5.66602Z" stroke="#717680" stroke-width="1.5" stroke-linecap="round" stroke-linejoin="round"/>
</svg>
