<svg width="20" height="20" viewBox="0 0 20 20" fill="none" xmlns="http://www.w3.org/2000/svg">
<g clip-path="url(#clip0_1352_7556)">
<path d="M9.99996 5.83268H6.24996C5.69743 5.83268 5.16752 5.61319 4.77682 5.22249C4.38612 4.83179 4.16663 4.30188 4.16663 3.74935C4.16663 3.19681 4.38612 2.66691 4.77682 2.27621C5.16752 1.88551 5.69743 1.66602 6.24996 1.66602C9.16663 1.66602 9.99996 5.83268 9.99996 5.83268ZM9.99996 5.83268H13.75C14.3025 5.83268 14.8324 5.61319 15.2231 5.22249C15.6138 4.83179 15.8333 4.30188 15.8333 3.74935C15.8333 3.19681 15.6138 2.66691 15.2231 2.27621C14.8324 1.88551 14.3025 1.66602 13.75 1.66602C10.8333 1.66602 9.99996 5.83268 9.99996 5.83268ZM9.99996 5.83268L9.99996 18.3327M1.66663 11.666H18.3333M1.66663 8.49935L1.66663 15.666C1.66663 16.5994 1.66663 17.0661 1.84828 17.4227C2.00807 17.7363 2.26304 17.9912 2.57664 18.151C2.93316 18.3327 3.39987 18.3327 4.33329 18.3327L15.6666 18.3327C16.6 18.3327 17.0668 18.3327 17.4233 18.151C17.7369 17.9912 17.9919 17.7363 18.1516 17.4227C18.3333 17.0661 18.3333 16.5994 18.3333 15.666V8.49935C18.3333 7.56593 18.3333 7.09922 18.1516 6.7427C17.9919 6.4291 17.7369 6.17413 17.4233 6.01434C17.0668 5.83268 16.6 5.83268 15.6666 5.83268L4.33329 5.83268C3.39987 5.83268 2.93316 5.83268 2.57664 6.01434C2.26304 6.17413 2.00807 6.42909 1.84828 6.7427C1.66663 7.09922 1.66663 7.56593 1.66663 8.49935Z" stroke="#717680" stroke-width="1.5" stroke-linecap="round" stroke-linejoin="round"/>
</g>
<defs>
<clipPath id="clip0_1352_7556">
<rect width="20" height="20" fill="white"/>
</clipPath>
</defs>
</svg>
