<svg width="20" height="20" viewBox="0 0 20 20" fill="none" xmlns="http://www.w3.org/2000/svg">
<path d="M11.5779 10.4841L13.7782 11.427C13.8865 11.4734 14.0116 11.527 14.1161 11.5829C14.2337 11.6459 14.4052 11.7521 14.5446 11.9395C14.7209 12.1764 14.8077 12.4681 14.7894 12.7629C14.775 12.996 14.6893 13.1786 14.6252 13.2957C14.5683 13.3996 14.4927 13.5128 14.4274 13.6108C14.0184 14.2244 13.6505 15.0722 13.0704 15.5491C12.9434 15.6534 12.7971 15.7317 12.6399 15.7794C11.9131 16.0002 10.5894 16.0404 9.84248 15.7466C9.64773 15.67 9.47533 15.5458 9.34109 15.3853C8.8373 14.7828 8.70362 13.7475 8.46309 13.0255L8.45668 13.0066C8.43303 12.9372 8.38416 12.794 8.37083 12.6395C8.35955 12.5088 8.3689 12.3772 8.39855 12.2494C8.52147 11.7198 8.86365 11.1668 9.13832 10.7086C9.19562 10.613 9.28424 10.4842 9.42622 10.3698C9.6129 10.2193 9.83893 10.1256 10.0773 10.1001C10.2587 10.0806 10.4124 10.109 10.5205 10.1361C10.8755 10.225 11.2427 10.3404 11.5779 10.4841Z" fill="#255A5A"/>
<path fill-rule="evenodd" clip-rule="evenodd" d="M9.99967 0.833374C4.93706 0.833374 0.833008 4.93743 0.833008 10C0.833008 15.0627 4.93706 19.1667 9.99967 19.1667C15.0623 19.1667 19.1663 15.0627 19.1663 10C19.1663 4.93743 15.0623 0.833374 9.99967 0.833374ZM2.92095 7.51562C2.64807 8.29316 2.49967 9.12927 2.49967 10C2.49967 14.1422 5.85754 17.5 9.99967 17.5C14.1418 17.5 17.4997 14.1422 17.4997 10C17.4997 6.80629 15.5034 4.0788 12.6906 2.99724C12.6215 4.03518 12.984 5.67363 12.1139 6.47456C11.2014 7.31451 9.56815 7.67804 8.45292 8.17362L7.71249 9.16087C7.65425 9.23859 7.5844 9.3318 7.51611 9.40901C7.43672 9.49875 7.31479 9.62006 7.13563 9.7095C6.90301 9.82564 6.63996 9.86634 6.38311 9.82595C6.18531 9.79484 6.03241 9.71606 5.92961 9.65451C5.84116 9.60155 5.74643 9.53383 5.66742 9.47735L2.92095 7.51562Z" fill="#255A5A"/>
</svg>
