<svg width="20" height="20" viewBox="0 0 20 20" fill="none" xmlns="http://www.w3.org/2000/svg">
<g clip-path="url(#clip0_114_2400)">
<path d="M9.99996 1.6665C12.0844 3.94846 13.2689 6.90987 13.3333 9.99984C13.2689 13.0898 12.0844 16.0512 9.99996 18.3332M9.99996 1.6665C7.91556 3.94846 6.731 6.90987 6.66663 9.99984C6.731 13.0898 7.91556 16.0512 9.99996 18.3332M9.99996 1.6665C5.39759 1.6665 1.66663 5.39746 1.66663 9.99984C1.66663 14.6022 5.39759 18.3332 9.99996 18.3332M9.99996 1.6665C14.6023 1.6665 18.3333 5.39746 18.3333 9.99984C18.3333 14.6022 14.6023 18.3332 9.99996 18.3332M2.08331 7.49984H17.9166M2.08329 12.4998H17.9166" stroke="#2E90FA" stroke-width="1.66667" stroke-linecap="round" stroke-linejoin="round"/>
</g>
<defs>
<clipPath id="clip0_114_2400">
<rect width="20" height="20" fill="white"/>
</clipPath>
</defs>
</svg>
