<svg width="16" height="16" viewBox="0 0 16 16" fill="none" xmlns="http://www.w3.org/2000/svg">
<g clip-path="url(#clip0_105_2291)">
<path d="M7.99998 1.3335C9.6675 3.15906 10.6151 5.52819 10.6666 8.00016C10.6151 10.4721 9.6675 12.8413 7.99998 14.6668M7.99998 1.3335C6.33246 3.15906 5.38481 5.52819 5.33331 8.00016C5.38481 10.4721 6.33246 12.8413 7.99998 14.6668M7.99998 1.3335C4.31808 1.3335 1.33331 4.31826 1.33331 8.00016C1.33331 11.6821 4.31808 14.6668 7.99998 14.6668M7.99998 1.3335C11.6819 1.3335 14.6666 4.31826 14.6666 8.00016C14.6666 11.6821 11.6819 14.6668 7.99998 14.6668M1.66666 6.00016H14.3333M1.66665 10.0002H14.3333" stroke="#717680" stroke-width="1.33333" stroke-linecap="round" stroke-linejoin="round"/>
</g>
<defs>
<clipPath id="clip0_105_2291">
<rect width="16" height="16" fill="white"/>
</clipPath>
</defs>
</svg>
