<svg width="20" height="20" viewBox="0 0 20 20" fill="none" xmlns="http://www.w3.org/2000/svg">
<path d="M18.7057 7.82874C18.988 7.68758 19.1663 7.39903 19.1663 7.08339C19.1663 6.76774 18.988 6.47919 18.7057 6.33803L10.6492 2.30963C10.5714 2.26995 10.4105 2.18784 10.2302 2.154C10.0778 2.12542 9.92151 2.12542 9.76918 2.154C9.58881 2.18784 9.42791 2.26995 9.35016 2.30963L1.29366 6.33803C1.01134 6.47919 0.833008 6.76774 0.833008 7.08339C0.833008 7.39903 1.01134 7.68758 1.29366 7.82874L9.40212 11.8937C9.6212 12.0036 9.73074 12.0585 9.84566 12.0801C9.94745 12.0992 10.0519 12.0992 10.1537 12.0801C10.2686 12.0585 10.3781 12.0036 10.5972 11.8937L18.7057 7.82874Z" fill="#255A5A"/>
<path d="M16.6635 11.8044C16.6635 11.4466 16.6635 11.2677 16.5882 11.1601C16.5225 11.0662 16.4211 11.0035 16.3077 10.9868C16.1778 10.9676 16.018 11.0476 15.6982 11.2075L10.6492 13.7321C10.5714 13.7718 10.4105 13.8539 10.2302 13.8877C10.0778 13.9163 9.92151 13.9163 9.76918 13.8877C9.58881 13.8539 9.42791 13.7718 9.35016 13.7321L4.30103 11.2074C3.98125 11.0475 3.82136 10.9676 3.69153 10.9867C3.57809 11.0035 3.47672 11.0661 3.41099 11.1601C3.33576 11.2676 3.33572 11.4465 3.33566 11.8043C3.33556 12.3381 3.3348 12.8719 3.33278 13.4057C3.3319 13.6357 3.3308 13.9248 3.42403 14.1951C3.50458 14.4286 3.63605 14.6413 3.80891 14.8178C4.00896 15.0221 4.26803 15.1504 4.47415 15.2525C6.01019 16.0156 7.54482 16.7816 9.07641 17.5536C9.24524 17.6386 9.45772 17.7457 9.69227 17.7897C9.89539 17.8278 10.1038 17.8278 10.3069 17.7897C10.5415 17.7457 10.754 17.6386 10.9228 17.5536C12.4544 16.7817 13.9881 16.0137 15.5251 15.2525C15.7312 15.1504 15.9903 15.0221 16.1903 14.8178C16.3632 14.6413 16.4946 14.4286 16.5752 14.1951C16.6684 13.9248 16.6673 13.6357 16.6664 13.4057C16.6644 12.8719 16.6636 12.3382 16.6635 11.8044Z" fill="#255A5A"/>
</svg>
