<svg width="48" height="48" viewBox="0 0 48 48" fill="none" xmlns="http://www.w3.org/2000/svg">
<rect width="48" height="48" rx="16" fill="url(#paint0_linear_258_190)"/>
<circle cx="24" cy="24" r="15" fill="white"/>
<path d="M25.3951 21.882L21.9601 22.3125L21.8371 22.8825L22.5121 23.007C22.9531 23.112 23.0401 23.271 22.9441 23.7105L21.8371 28.9125C21.5461 30.258 21.9946 30.891 23.0491 30.891C23.8666 30.891 24.8161 30.513 25.2466 29.994L25.3785 29.37C25.0785 29.634 24.6405 29.739 24.3495 29.739C23.937 29.739 23.7871 29.4495 23.8936 28.9395L25.3951 21.882ZM25.5001 18.75C25.5001 19.1478 25.342 19.5294 25.0607 19.8107C24.7794 20.092 24.3979 20.25 24.0001 20.25C23.6022 20.25 23.2207 20.092 22.9394 19.8107C22.6581 19.5294 22.5001 19.1478 22.5001 18.75C22.5001 18.3522 22.6581 17.9706 22.9394 17.6893C23.2207 17.408 23.6022 17.25 24.0001 17.25C24.3979 17.25 24.7794 17.408 25.0607 17.6893C25.342 17.9706 25.5001 18.3522 25.5001 18.75Z" fill="#0266D5"/>
<defs>
<linearGradient id="paint0_linear_258_190" x1="24" y1="45" x2="24" y2="0" gradientUnits="userSpaceOnUse">
<stop stop-color="#0266D5"/>
<stop offset="1" stop-color="#449CFE"/>
</linearGradient>
</defs>
</svg>
