<svg width="20" height="20" viewBox="0 0 20 20" fill="none" xmlns="http://www.w3.org/2000/svg">
<path fill-rule="evenodd" clip-rule="evenodd" d="M10.0002 0.833008C4.93755 0.833008 0.833496 4.93706 0.833496 9.99967C0.833496 15.0623 4.93755 19.1663 10.0002 19.1663C15.0628 19.1663 19.1668 15.0623 19.1668 9.99967C19.1668 4.93706 15.0628 0.833008 10.0002 0.833008ZM10.0002 5.83301C9.53992 5.83301 9.16683 6.2061 9.16683 6.66634C9.16683 7.12658 9.53992 7.49967 10.0002 7.49967H10.0085C10.4687 7.49967 10.8418 7.12658 10.8418 6.66634C10.8418 6.2061 10.4687 5.83301 10.0085 5.83301H10.0002ZM10.8335 9.99967C10.8335 9.53944 10.4604 9.16634 10.0002 9.16634C9.53992 9.16634 9.16683 9.53944 9.16683 9.99967V13.333C9.16683 13.7932 9.53992 14.1663 10.0002 14.1663C10.4604 14.1663 10.8335 13.7932 10.8335 13.333V9.99967Z" fill="#DC6803"/>
</svg>
