<svg width="20" height="20" viewBox="0 0 20 20" fill="none" xmlns="http://www.w3.org/2000/svg">
<path d="M1.77785 6.81787C1.52791 6.63933 1.40294 6.55007 1.29398 6.53848C1.13105 6.52114 0.967747 6.60518 0.887144 6.74784C0.833245 6.84324 0.833248 6.99513 0.833252 7.29891V12.7011C0.833242 13.3719 0.833233 13.9255 0.870081 14.3765C0.908352 14.8449 0.990489 15.2755 1.19656 15.68C1.51614 16.3072 2.02608 16.8171 2.65328 17.1367C3.05773 17.3428 3.48832 17.4249 3.95673 17.4632C4.40772 17.5 4.96135 17.5 5.63215 17.5H14.3677C15.0385 17.5 15.5921 17.5 16.0431 17.4632C16.5115 17.4249 16.9421 17.3428 17.3466 17.1367C17.9738 16.8171 18.4837 16.3072 18.8033 15.68C19.0094 15.2755 19.0915 14.8449 19.1298 14.3765C19.1666 13.9255 19.1666 13.3719 19.1666 12.7011V7.2989C19.1666 7.15001 19.1666 7.07557 19.153 7.02358C19.0913 6.78856 18.8358 6.65468 18.6075 6.73776C18.5569 6.75614 18.495 6.79905 18.371 6.88487L11.9192 11.3516C11.4618 11.6693 11.0601 11.9482 10.6038 12.0588C10.2047 12.1556 9.78794 12.1525 9.39031 12.0499C8.93569 11.9326 8.53819 11.6478 8.08546 11.3234L1.77785 6.81787Z" fill="#255A5A"/>
<path d="M18.4439 4.80727C18.5978 4.70077 18.6747 4.64752 18.7219 4.56187C18.7586 4.49536 18.7796 4.39003 18.7712 4.31454C18.7604 4.21733 18.7191 4.15314 18.6364 4.02478C18.3199 3.53304 17.8643 3.12713 17.3466 2.86331C16.9421 2.65724 16.5115 2.5751 16.0431 2.53683C15.5921 2.49998 15.0385 2.49999 14.3677 2.5H5.63217C4.96137 2.49999 4.40772 2.49998 3.95673 2.53683C3.48832 2.5751 3.05773 2.65724 2.65328 2.86331C2.18742 3.10068 1.78475 3.44384 1.47856 3.86112C1.38222 3.99241 1.33406 4.05805 1.31819 4.15767C1.30578 4.23558 1.32311 4.34381 1.35922 4.41395C1.4054 4.50364 1.4855 4.56085 1.64569 4.67527L8.95828 9.89856C9.5643 10.3314 9.6929 10.4067 9.8067 10.4361C9.93925 10.4703 10.0782 10.4713 10.2112 10.4391C10.3254 10.4114 10.4551 10.338 11.0674 9.91406L18.4439 4.80727Z" fill="#255A5A"/>
</svg>
