<svg width="20" height="20" viewBox="0 0 20 20" fill="none" xmlns="http://www.w3.org/2000/svg">
<path d="M11.4534 2.19479L17.7267 6.27247C17.9484 6.41656 18.0592 6.4886 18.1395 6.5847C18.2106 6.66976 18.264 6.76816 18.2966 6.87412C18.3334 6.99382 18.3334 7.12601 18.3334 7.39039V13.5001C18.3334 14.9003 18.3334 15.6003 18.0609 16.1351C17.8212 16.6055 17.4388 16.988 16.9684 17.2277C16.4336 17.5001 15.7335 17.5001 14.3334 17.5001H5.66675C4.26662 17.5001 3.56655 17.5001 3.03177 17.2277C2.56137 16.988 2.17892 16.6055 1.93923 16.1351C1.66675 15.6003 1.66675 14.9003 1.66675 13.5001V7.39039C1.66675 7.12601 1.66675 6.99382 1.70356 6.87412C1.73614 6.76816 1.78954 6.66976 1.86062 6.5847C1.94092 6.4886 2.05176 6.41656 2.27343 6.27247L8.54678 2.19479M11.4534 2.19479C10.9273 1.85287 10.6643 1.68191 10.3809 1.61539C10.1304 1.55659 9.86973 1.55659 9.61923 1.61539C9.33583 1.68191 9.07282 1.85287 8.54678 2.19479M11.4534 2.19479L17.4735 6.10785C17.7601 6.29414 17.9034 6.38729 17.953 6.50541C17.9964 6.60864 17.9964 6.72498 17.953 6.82821C17.9034 6.94634 17.7601 7.03948 17.4735 7.22578L11.4534 11.1388C10.9274 11.4808 10.6643 11.6517 10.3809 11.7182C10.1304 11.777 9.86973 11.777 9.61923 11.7182C9.33583 11.6517 9.07282 11.4808 8.54678 11.1388L2.52669 7.22577C2.24009 7.03948 2.09679 6.94634 2.04715 6.82821C2.00378 6.72498 2.00378 6.60864 2.04715 6.50541C2.09679 6.38729 2.24009 6.29414 2.52669 6.10785L8.54678 2.19479" stroke="#414651" stroke-width="1.66667" stroke-linecap="round" stroke-linejoin="round"/>
</svg>
