<svg width="20" height="20" viewBox="0 0 20 20" fill="none" xmlns="http://www.w3.org/2000/svg">
<path d="M13.3333 5.83333C13.3333 5.05836 13.3333 4.67087 13.2481 4.35295C13.0169 3.49022 12.3431 2.81635 11.4803 2.58519C11.1624 2.5 10.7749 2.5 9.99996 2.5C9.22498 2.5 8.8375 2.5 8.51958 2.58519C7.65685 2.81635 6.98298 3.49022 6.75181 4.35295C6.66663 4.67087 6.66663 5.05836 6.66663 5.83333M4.33329 17.5H15.6666C16.6 17.5 17.0668 17.5 17.4233 17.3183C17.7369 17.1586 17.9918 16.9036 18.1516 16.59C18.3333 16.2335 18.3333 15.7668 18.3333 14.8333V8.5C18.3333 7.56658 18.3333 7.09987 18.1516 6.74335C17.9918 6.42975 17.7369 6.17478 17.4233 6.01499C17.0668 5.83333 16.6 5.83333 15.6666 5.83333H4.33329C3.39987 5.83333 2.93316 5.83333 2.57664 6.01499C2.26304 6.17478 2.00807 6.42975 1.84828 6.74335C1.66663 7.09987 1.66663 7.56658 1.66663 8.5V14.8333C1.66663 15.7668 1.66663 16.2335 1.84828 16.59C2.00807 16.9036 2.26304 17.1586 2.57664 17.3183C2.93316 17.5 3.39987 17.5 4.33329 17.5Z" stroke="#255A5A" stroke-width="1.66667" stroke-linecap="round" stroke-linejoin="round"/>
</svg>
