<svg width="20" height="20" viewBox="0 0 20 20" fill="none" xmlns="http://www.w3.org/2000/svg">
<path d="M13.3334 5.83333C13.3334 5.05836 13.3334 4.67087 13.2482 4.35295C13.0171 3.49022 12.3432 2.81635 11.4805 2.58519C11.1625 2.5 10.7751 2.5 10.0001 2.5C9.22511 2.5 8.83762 2.5 8.5197 2.58519C7.65697 2.81635 6.9831 3.49022 6.75193 4.35295C6.66675 4.67087 6.66675 5.05836 6.66675 5.83333M4.33342 17.5H15.6667C16.6002 17.5 17.0669 17.5 17.4234 17.3183C17.737 17.1586 17.992 16.9036 18.1518 16.59C18.3334 16.2335 18.3334 15.7668 18.3334 14.8333V8.5C18.3334 7.56658 18.3334 7.09987 18.1518 6.74335C17.992 6.42975 17.737 6.17478 17.4234 6.01499C17.0669 5.83333 16.6002 5.83333 15.6667 5.83333H4.33341C3.39999 5.83333 2.93328 5.83333 2.57676 6.01499C2.26316 6.17478 2.00819 6.42975 1.8484 6.74335C1.66675 7.09987 1.66675 7.56658 1.66675 8.5V14.8333C1.66675 15.7668 1.66675 16.2335 1.8484 16.59C2.00819 16.9036 2.26316 17.1586 2.57676 17.3183C2.93328 17.5 3.39999 17.5 4.33342 17.5Z" stroke="#535862" stroke-width="1.66667" stroke-linecap="round" stroke-linejoin="round"/>
</svg>
