<svg width="16" height="16" viewBox="0 0 16 16" fill="none" xmlns="http://www.w3.org/2000/svg">
<path d="M6.66675 10.6668H9.33341M5.86675 14.6668H10.1334C11.2535 14.6668 11.8136 14.6668 12.2414 14.4488C12.6177 14.2571 12.9237 13.9511 13.1154 13.5748C13.3334 13.147 13.3334 12.5869 13.3334 11.4668V4.5335C13.3334 3.41339 13.3334 2.85334 13.1154 2.42552C12.9237 2.04919 12.6177 1.74323 12.2414 1.55148C11.8136 1.3335 11.2535 1.3335 10.1334 1.3335H5.86675C4.74664 1.3335 4.18659 1.3335 3.75877 1.55148C3.38244 1.74323 3.07648 2.04919 2.88474 2.42552C2.66675 2.85334 2.66675 3.41339 2.66675 4.5335V11.4668C2.66675 12.5869 2.66675 13.147 2.88474 13.5748C3.07648 13.9511 3.38244 14.2571 3.75877 14.4488C4.18659 14.6668 4.74664 14.6668 5.86675 14.6668ZM10.0001 6.00016C10.0001 7.10473 9.10465 8.00016 8.00008 8.00016C6.89551 8.00016 6.00008 7.10473 6.00008 6.00016C6.00008 4.89559 6.89551 4.00016 8.00008 4.00016C9.10465 4.00016 10.0001 4.89559 10.0001 6.00016Z" stroke="#17B26A" stroke-width="1.33333" stroke-linecap="round" stroke-linejoin="round"/>
</svg>
