<svg width="20" height="20" viewBox="0 0 20 20" fill="none" xmlns="http://www.w3.org/2000/svg">
<path d="M10.0003 13.3333V17.5M10.0003 13.3333L15.0003 17.5M10.0003 13.3333L5.00033 17.5M17.5003 2.5V9.33333C17.5003 10.7335 17.5003 11.4335 17.2278 11.9683C16.9882 12.4387 16.6057 12.8212 16.1353 13.0609C15.6005 13.3333 14.9005 13.3333 13.5003 13.3333H6.50033C5.10019 13.3333 4.40013 13.3333 3.86535 13.0609C3.39494 12.8212 3.01249 12.4387 2.77281 11.9683C2.50033 11.4335 2.50033 10.7335 2.50033 9.33333V2.5M6.66699 7.5V10M10.0003 5.83333V10M13.3337 9.16667V10M18.3337 2.5H1.66699" stroke="#255A5A" stroke-width="1.66667" stroke-linecap="round" stroke-linejoin="round"/>
</svg>
