<svg width="20" height="20" viewBox="0 0 20 20" fill="none" xmlns="http://www.w3.org/2000/svg">
<path d="M16.6666 10.4165V5.6665C16.6666 4.26637 16.6666 3.56631 16.3941 3.03153C16.1544 2.56112 15.772 2.17867 15.3016 1.93899C14.7668 1.6665 14.0667 1.6665 12.6666 1.6665H7.33325C5.93312 1.6665 5.23306 1.6665 4.69828 1.93899C4.22787 2.17867 3.84542 2.56112 3.60574 3.03153C3.33325 3.56631 3.33325 4.26637 3.33325 5.6665V14.3332C3.33325 15.7333 3.33325 16.4334 3.60574 16.9681C3.84542 17.4386 4.22787 17.821 4.69828 18.0607C5.23306 18.3332 5.93312 18.3332 7.33325 18.3332H9.99992M11.6666 9.1665H6.66659M8.33325 12.4998H6.66659M13.3333 5.83317H6.66659M12.0833 15.8332L13.7499 17.4998L17.4999 13.7498" stroke="#255A5A" stroke-width="1.66667" stroke-linecap="round" stroke-linejoin="round"/>
</svg>
