<svg width="16" height="16" viewBox="0 0 16 16" fill="none" xmlns="http://www.w3.org/2000/svg">
<path d="M3.99998 6.66683V9.3335M12 6.66683V9.3335M1.33331 5.46683L1.33331 10.5335C1.33331 11.2802 1.33331 11.6536 1.47864 11.9388C1.60647 12.1897 1.81044 12.3937 2.06133 12.5215C2.34654 12.6668 2.71991 12.6668 3.46665 12.6668L12.5333 12.6668C13.2801 12.6668 13.6534 12.6668 13.9386 12.5215C14.1895 12.3937 14.3935 12.1897 14.5213 11.9388C14.6666 11.6536 14.6666 11.2802 14.6666 10.5335V5.46683C14.6666 4.72009 14.6666 4.34673 14.5213 4.06151C14.3935 3.81063 14.1895 3.60665 13.9386 3.47882C13.6534 3.3335 13.2801 3.3335 12.5333 3.3335L3.46665 3.3335C2.71991 3.3335 2.34654 3.3335 2.06133 3.47882C1.81044 3.60665 1.60647 3.81063 1.47864 4.06151C1.33331 4.34672 1.33331 4.72009 1.33331 5.46683ZM9.66665 8.00016C9.66665 8.92064 8.92045 9.66683 7.99998 9.66683C7.07951 9.66683 6.33331 8.92064 6.33331 8.00016C6.33331 7.07969 7.07951 6.3335 7.99998 6.3335C8.92045 6.3335 9.66665 7.07969 9.66665 8.00016Z" stroke="#717680" stroke-width="1.33333" stroke-linecap="round" stroke-linejoin="round"/>
</svg>
