<svg width="20" height="20" viewBox="0 0 20 20" fill="none" xmlns="http://www.w3.org/2000/svg">
<g clip-path="url(#clip0_1352_8181)">
<path d="M9.99996 12.4993C11.3807 12.4993 12.5 11.3801 12.5 9.99935C12.5 8.61864 11.3807 7.49935 9.99996 7.49935C8.61925 7.49935 7.49996 8.61864 7.49996 9.99935C7.49996 11.3801 8.61925 12.4993 9.99996 12.4993Z" stroke="#717680" stroke-width="1.5" stroke-linecap="round" stroke-linejoin="round"/>
<path d="M15.606 12.2721C15.5052 12.5006 15.4751 12.754 15.5197 12.9998C15.5642 13.2455 15.6814 13.4723 15.856 13.6509L15.9015 13.6963C16.0423 13.837 16.1541 14.0041 16.2304 14.1881C16.3066 14.372 16.3458 14.5692 16.3458 14.7683C16.3458 14.9674 16.3066 15.1646 16.2304 15.3485C16.1541 15.5324 16.0423 15.6995 15.9015 15.8403C15.7608 15.9811 15.5937 16.0929 15.4097 16.1691C15.2258 16.2454 15.0286 16.2846 14.8295 16.2846C14.6304 16.2846 14.4332 16.2454 14.2493 16.1691C14.0654 16.0929 13.8983 15.9811 13.7575 15.8403L13.7121 15.7948C13.5335 15.6202 13.3068 15.503 13.061 15.4584C12.8153 15.4139 12.5618 15.444 12.3333 15.5448C12.1092 15.6408 11.9181 15.8003 11.7835 16.0035C11.6489 16.2068 11.5767 16.445 11.5757 16.6887V16.8175C11.5757 17.2194 11.4161 17.6048 11.1319 17.8889C10.8478 18.1731 10.4624 18.3327 10.0606 18.3327C9.65872 18.3327 9.27334 18.1731 8.98919 17.8889C8.70505 17.6048 8.54541 17.2194 8.54541 16.8175V16.7493C8.53955 16.4986 8.45838 16.2554 8.31247 16.0514C8.16655 15.8474 7.96264 15.692 7.72723 15.6054C7.49874 15.5046 7.24527 15.4745 6.99951 15.519C6.75376 15.5636 6.52699 15.6808 6.34844 15.8554L6.30299 15.9009C6.16227 16.0417 5.99517 16.1535 5.81123 16.2297C5.6273 16.306 5.43013 16.3452 5.23102 16.3452C5.03191 16.3452 4.83474 16.306 4.65081 16.2297C4.46687 16.1535 4.29977 16.0417 4.15905 15.9009C4.01818 15.7601 3.90642 15.593 3.83017 15.4091C3.75392 15.2252 3.71468 15.028 3.71468 14.8289C3.71468 14.6298 3.75392 14.4326 3.83017 14.2487C3.90642 14.0647 4.01818 13.8976 4.15905 13.7569L4.2045 13.7115C4.37915 13.5329 4.49631 13.3062 4.54087 13.0604C4.58543 12.8146 4.55535 12.5612 4.4545 12.3327C4.35847 12.1086 4.19902 11.9175 3.99577 11.7829C3.79252 11.6483 3.55434 11.5761 3.31057 11.5751H3.18178C2.77993 11.5751 2.39455 11.4155 2.1104 11.1313C1.82626 10.8472 1.66663 10.4618 1.66663 10.06C1.66663 9.65811 1.82626 9.27273 2.1104 8.98858C2.39455 8.70444 2.77993 8.5448 3.18178 8.5448H3.24996C3.50071 8.53894 3.7439 8.45777 3.94791 8.31186C4.15192 8.16594 4.30732 7.96203 4.3939 7.72662C4.49474 7.49813 4.52483 7.24466 4.48027 6.9989C4.43571 6.75315 4.31855 6.52638 4.1439 6.34783L4.09844 6.30238C3.95757 6.16166 3.84581 5.99456 3.76957 5.81062C3.69332 5.62669 3.65407 5.42952 3.65407 5.23041C3.65407 5.0313 3.69332 4.83413 3.76957 4.6502C3.84581 4.46626 3.95757 4.29916 4.09844 4.15844C4.23916 4.01757 4.40627 3.90581 4.5902 3.82956C4.77414 3.75331 4.9713 3.71407 5.17041 3.71407C5.36953 3.71407 5.56669 3.75331 5.75063 3.82956C5.93456 3.90581 6.10167 4.01757 6.24238 4.15844L6.28784 4.20389C6.46638 4.37854 6.69315 4.4957 6.93891 4.54026C7.18466 4.58482 7.43813 4.55474 7.66663 4.45389H7.72723C7.9513 4.35786 8.1424 4.19841 8.277 3.99516C8.4116 3.79191 8.48384 3.55373 8.48481 3.30996V3.18117C8.48481 2.77932 8.64444 2.39394 8.92859 2.10979C9.21273 1.82565 9.59812 1.66602 9.99996 1.66602C10.4018 1.66602 10.7872 1.82565 11.0713 2.10979C11.3555 2.39394 11.5151 2.77932 11.5151 3.18117V3.24935C11.5161 3.49313 11.5883 3.7313 11.7229 3.93455C11.8575 4.1378 12.0486 4.29726 12.2727 4.39329C12.5012 4.49413 12.7547 4.52422 13.0004 4.47966C13.2462 4.4351 13.4729 4.31794 13.6515 4.14329L13.6969 4.09783C13.8376 3.95696 14.0048 3.8452 14.1887 3.76896C14.3726 3.69271 14.5698 3.65346 14.7689 3.65346C14.968 3.65346 15.1652 3.69271 15.3491 3.76896C15.533 3.8452 15.7002 3.95696 15.8409 4.09783C15.9817 4.23855 16.0935 4.40565 16.1697 4.58959C16.246 4.77353 16.2852 4.97069 16.2852 5.1698C16.2852 5.36892 16.246 5.56608 16.1697 5.75002C16.0935 5.93395 15.9817 6.10106 15.8409 6.24177L15.7954 6.28723C15.6208 6.46577 15.5036 6.69254 15.459 6.9383C15.4145 7.18405 15.4446 7.43752 15.5454 7.66602V7.72662C15.6414 7.95069 15.8009 8.14179 16.0042 8.27639C16.2074 8.41099 16.4456 8.48323 16.6894 8.4842H16.8181C17.22 8.4842 17.6054 8.64383 17.8895 8.92798C18.1737 9.21212 18.3333 9.59751 18.3333 9.99935C18.3333 10.4012 18.1737 10.7866 17.8895 11.0707C17.6054 11.3549 17.22 11.5145 16.8181 11.5145H16.75C16.5062 11.5155 16.268 11.5877 16.0648 11.7223C15.8615 11.8569 15.7021 12.048 15.606 12.2721Z" stroke="#717680" stroke-width="1.5" stroke-linecap="round" stroke-linejoin="round"/>
</g>
<defs>
<clipPath id="clip0_1352_8181">
<rect width="20" height="20" fill="white"/>
</clipPath>
</defs>
</svg>
