<svg width="18" height="18" viewBox="0 0 18 18" fill="none" xmlns="http://www.w3.org/2000/svg">
<g clip-path="url(#clip0_1122_1083)">
<path d="M3.375 16.5V12.75M3.375 5.25V1.5M1.5 3.375H5.25M1.5 14.625H5.25M13.1184 10.3006V10.3006C13.4044 10.1906 13.5474 10.1356 13.6231 10.0937C14.4828 9.61803 14.4828 8.38196 13.6231 7.90625C13.5474 7.86437 13.4044 7.80937 13.1184 7.69937V7.69937C12.5684 7.48786 12.2935 7.3821 12.0622 7.21765C11.8572 7.07189 11.6781 6.8928 11.5324 6.68781C11.3679 6.45653 11.2621 6.18157 11.0506 5.63165V5.63165C10.9406 5.34564 10.8856 5.20263 10.8437 5.12694C10.368 4.26715 9.13196 4.26715 8.65625 5.12694C8.61437 5.20263 8.55937 5.34564 8.44936 5.63165V5.63165C8.23786 6.18157 8.1321 6.45653 7.96765 6.68781C7.82189 6.8928 7.6428 7.07189 7.43781 7.21765C7.20653 7.3821 6.93157 7.48786 6.38164 7.69937V7.69937C6.09563 7.80937 5.95263 7.86437 5.87694 7.90625C5.01715 8.38196 5.01715 9.61803 5.87694 10.0937C5.95263 10.1356 6.09564 10.1906 6.38165 10.3006V10.3006C6.93157 10.5121 7.20653 10.6179 7.43781 10.7824C7.6428 10.9281 7.82189 11.1072 7.96765 11.3122C8.1321 11.5435 8.23786 11.8184 8.44937 12.3684V12.3684C8.55937 12.6544 8.61437 12.7974 8.65625 12.8731C9.13197 13.7328 10.368 13.7328 10.8437 12.8731C10.8856 12.7974 10.9406 12.6544 11.0506 12.3684V12.3684C11.2621 11.8184 11.3679 11.5435 11.5324 11.3122C11.6781 11.1072 11.8572 10.9281 12.0622 10.7824C12.2935 10.6179 12.5684 10.5121 13.1184 10.3006Z" stroke="#717680" stroke-width="1.45" stroke-linecap="round" stroke-linejoin="round"/>
</g>
<defs>
<clipPath id="clip0_1122_1083">
<rect width="18" height="18" fill="white"/>
</clipPath>
</defs>
</svg>
