<svg width="20" height="20" viewBox="0 0 20 20" fill="none" xmlns="http://www.w3.org/2000/svg">
<path d="M10.538 1.48009C10.1977 1.31784 9.80239 1.31784 9.46209 1.48009C9.16791 1.62035 9.00572 1.86388 8.92392 1.99748C8.83936 2.1356 8.75256 2.31154 8.66795 2.48303L6.87151 6.12243L2.85313 6.70977C2.66397 6.73738 2.46988 6.76571 2.31245 6.80357C2.16015 6.84019 1.87856 6.9194 1.65447 7.15593C1.39523 7.42957 1.27331 7.80558 1.32266 8.17928C1.36532 8.50231 1.54685 8.73168 1.64869 8.8507C1.75395 8.97374 1.89449 9.11057 2.03146 9.24393L4.93796 12.0748L4.25216 16.0734C4.21978 16.2619 4.18657 16.4554 4.17378 16.6168C4.16142 16.773 4.14946 17.0654 4.30505 17.3519C4.48501 17.6832 4.80491 17.9156 5.17563 17.9843C5.49614 18.0437 5.77054 17.9419 5.91524 17.8819C6.06486 17.8198 6.23854 17.7284 6.40784 17.6394L10.0001 15.7503L13.5923 17.6394C13.7616 17.7284 13.9353 17.8198 14.0849 17.8819C14.2296 17.9419 14.504 18.0437 14.8245 17.9843C15.1952 17.9156 15.5151 17.6832 15.6951 17.3519C15.8507 17.0654 15.8387 16.773 15.8263 16.6168C15.8136 16.4554 15.7803 16.262 15.748 16.0734L15.0622 12.0748L17.9687 9.24389C18.1057 9.11055 18.2462 8.97373 18.3514 8.85071C18.4533 8.73168 18.6348 8.50231 18.6775 8.17928C18.7268 7.80558 18.6049 7.42957 18.3457 7.15593C18.1216 6.9194 17.84 6.84019 17.6877 6.80357C17.5302 6.76571 17.3361 6.73738 17.147 6.70977L13.1286 6.12243L11.3322 2.48309C11.2476 2.31159 11.1608 2.13561 11.0762 1.99748C10.9944 1.86388 10.8322 1.62035 10.538 1.48009Z" fill="#F79009"/>
</svg>
