<svg width="16" height="16" viewBox="0 0 16 16" fill="none" xmlns="http://www.w3.org/2000/svg">
<path d="M9.33332 1.5127V4.26639C9.33332 4.63976 9.33332 4.82644 9.40599 4.96905C9.4699 5.09449 9.57189 5.19648 9.69733 5.26039C9.83994 5.33306 10.0266 5.33306 10.4 5.33306H13.1537M9.33332 11.333H5.33332M10.6667 8.66634H5.33332M13.3333 6.65849V11.4663C13.3333 12.5864 13.3333 13.1465 13.1153 13.5743C12.9236 13.9506 12.6176 14.2566 12.2413 14.4484C11.8135 14.6663 11.2534 14.6663 10.1333 14.6663H5.86666C4.74655 14.6663 4.1865 14.6663 3.75868 14.4484C3.38235 14.2566 3.07639 13.9506 2.88464 13.5743C2.66666 13.1465 2.66666 12.5864 2.66666 11.4663V4.53301C2.66666 3.4129 2.66666 2.85285 2.88464 2.42503C3.07639 2.0487 3.38235 1.74274 3.75868 1.55099C4.1865 1.33301 4.74655 1.33301 5.86666 1.33301H8.00784C8.49702 1.33301 8.74161 1.33301 8.97179 1.38827C9.17586 1.43726 9.37095 1.51807 9.54989 1.62773C9.75173 1.75141 9.92468 1.92436 10.2706 2.27027L12.3961 4.39575C12.742 4.74165 12.9149 4.9146 13.0386 5.11644C13.1483 5.29538 13.2291 5.49047 13.2781 5.69454C13.3333 5.92472 13.3333 6.16931 13.3333 6.65849Z" stroke="#717680" stroke-width="1.33333" stroke-linecap="round" stroke-linejoin="round"/>
</svg>
