<svg width="20" height="20" viewBox="0 0 20 20" fill="none" xmlns="http://www.w3.org/2000/svg">
<path fill-rule="evenodd" clip-rule="evenodd" d="M2.84833 15.2526C4.49247 13.0767 7.08227 11.6667 9.99988 11.6667C12.9175 11.6667 15.5073 13.0767 17.1514 15.2526C17.1589 15.2624 17.1663 15.2723 17.1738 15.2822C17.3152 15.4692 17.4668 15.6696 17.5751 15.863C17.7062 16.0971 17.8034 16.3678 17.7973 16.6972C17.7925 16.9619 17.7123 17.2097 17.6149 17.4053C17.5175 17.601 17.3681 17.8144 17.1599 17.9778C16.8821 18.1958 16.5797 18.273 16.311 18.3052C16.0753 18.3335 15.796 18.3334 15.5152 18.3334C15.5025 18.3334 15.4898 18.3334 15.4772 18.3334H4.52257C4.50991 18.3334 4.49726 18.3334 4.4846 18.3334C4.20377 18.3334 3.92445 18.3335 3.68874 18.3052C3.42009 18.273 3.11767 18.1958 2.8399 17.9778C2.63161 17.8144 2.48225 17.601 2.38486 17.4053C2.28746 17.2097 2.20725 16.9619 2.20241 16.6972C2.19639 16.3678 2.29356 16.0971 2.42468 15.863C2.533 15.6696 2.68458 15.4692 2.82594 15.2822C2.83344 15.2723 2.8409 15.2624 2.84833 15.2526Z" fill="#255A5A"/>
<path fill-rule="evenodd" clip-rule="evenodd" d="M5.41654 6.25002C5.41654 3.71872 7.46857 1.66669 9.99988 1.66669C12.5312 1.66669 14.5832 3.71872 14.5832 6.25002C14.5832 8.78133 12.5312 10.8334 9.99988 10.8334C7.46857 10.8334 5.41654 8.78133 5.41654 6.25002Z" fill="#255A5A"/>
</svg>
