<svg width="48" height="48" viewBox="0 0 48 48" fill="none" xmlns="http://www.w3.org/2000/svg">
<rect width="48" height="48" rx="16" fill="url(#paint0_linear_258_195)"/>
<path d="M38.6598 32.5722L26.2008 13.1455C25.7476 12.4368 24.9085 12.0001 24 12.0001C23.0916 12.0001 22.2524 12.4371 21.7992 13.1455L9.34022 32.5722C8.88636 33.2795 8.88671 34.151 9.34058 34.8584C9.79479 35.5657 10.6336 36.0013 11.541 36.0006H36.4591C37.3668 36.0009 38.2056 35.5657 38.6595 34.8584C39.1133 34.151 39.1137 33.2795 38.6598 32.5722ZM25.5001 33H22.5003V30.0001H25.5001V33ZM25.5001 17.9999V28.4997H22.5003V17.9995L25.5001 17.9999Z" fill="white"/>
<defs>
<linearGradient id="paint0_linear_258_195" x1="24" y1="45" x2="24" y2="0" gradientUnits="userSpaceOnUse">
<stop stop-color="#E18900"/>
<stop offset="1" stop-color="#F09400"/>
</linearGradient>
</defs>
</svg>
