<svg width="20" height="20" viewBox="0 0 20 20" fill="none" xmlns="http://www.w3.org/2000/svg">
<g clip-path="url(#clip0_174_1464)">
<path d="M2.78338 14.1663C1.73992 12.358 2.27045 10.0535 3.99813 8.88322L3.99998 8.88137C5.38787 7.94346 7.21463 7.97494 8.57011 8.96007L11.4301 11.0396C12.7847 12.0247 14.6115 12.0562 16.0003 11.1183L16.0021 11.1164C17.7307 9.94613 18.2622 7.63977 17.2169 5.83339M14.1681 17.2159C12.3599 18.2594 10.0554 17.7288 8.88508 16.0012L8.88322 15.9993C7.94531 14.6114 7.97679 12.7847 8.96192 11.4292L11.0414 8.56914C12.0266 7.21459 12.0581 5.38783 11.1201 3.99901L11.1164 3.99716C9.94613 2.2704 7.63977 1.73802 5.83339 2.78334M15.8919 4.10735C19.1464 7.36181 19.1464 12.6375 15.8919 15.8919C12.6375 19.1464 7.36181 19.1464 4.10735 15.8919C0.852889 12.6375 0.852889 7.36181 4.10735 4.10735C7.36181 0.852889 12.6375 0.852889 15.8919 4.10735Z" stroke="#535862" stroke-width="1.66667" stroke-linecap="round" stroke-linejoin="round"/>
</g>
<defs>
<clipPath id="clip0_174_1464">
<rect width="20" height="20" fill="white"/>
</clipPath>
</defs>
</svg>
