<svg width="20" height="20" viewBox="0 0 20 20" fill="none" xmlns="http://www.w3.org/2000/svg">
<g clip-path="url(#clip0_174_1609)">
<path d="M2.78387 14.1663C1.74041 12.358 2.27093 10.0535 3.99862 8.88322L4.00047 8.88137C5.38836 7.94346 7.21512 7.97494 8.5706 8.96007L11.4306 11.0396C12.7852 12.0247 14.6119 12.0562 16.0008 11.1183L16.0026 11.1164C17.7312 9.94613 18.2627 7.63977 17.2174 5.83339M14.1686 17.2159C12.3604 18.2594 10.0559 17.7288 8.88556 16.0012L8.88371 15.9993C7.9458 14.6114 7.97728 12.7847 8.96241 11.4292L11.0419 8.56914C12.0271 7.21459 12.0585 5.38783 11.1206 3.99901L11.1169 3.99716C9.94662 2.2704 7.64026 1.73802 5.83387 2.78334M15.8924 4.10735C19.1469 7.36181 19.1469 12.6375 15.8924 15.8919C12.6379 19.1464 7.36229 19.1464 4.10784 15.8919C0.853378 12.6375 0.853378 7.36181 4.10784 4.10735C7.36229 0.852889 12.6379 0.852889 15.8924 4.10735Z" stroke="#255A5A" stroke-width="1.66667" stroke-linecap="round" stroke-linejoin="round"/>
</g>
<defs>
<clipPath id="clip0_174_1609">
<rect width="20" height="20" fill="white"/>
</clipPath>
</defs>
</svg>
