<svg width="21" height="20" viewBox="0 0 21 20" fill="none" xmlns="http://www.w3.org/2000/svg">
<path fill-rule="evenodd" clip-rule="evenodd" d="M1.63333 2.50033C1.63333 2.04009 2.00643 1.66699 2.46666 1.66699H19.1333C19.5936 1.66699 19.9667 2.04009 19.9667 2.50033C19.9667 2.96056 19.5936 3.33366 19.1333 3.33366V9.3681C19.1333 10.0389 19.1334 10.5925 19.0965 11.0435C19.0582 11.5119 18.9761 11.9425 18.77 12.347C18.4504 12.9742 17.9405 13.4841 17.3133 13.8037C16.9089 14.0098 16.4783 14.0919 16.0099 14.1302C15.5589 14.167 15.0052 14.167 14.3344 14.167H13.1017L16.3335 16.8601C16.6871 17.1548 16.7348 17.6803 16.4402 18.0338C16.1456 18.3874 15.6201 18.4351 15.2665 18.1405L11.6333 15.1128V17.5003C11.6333 17.9606 11.2602 18.3337 10.8 18.3337C10.3398 18.3337 9.96667 17.9606 9.96667 17.5003V15.1129L6.33351 18.1405C5.97994 18.4351 5.45447 18.3874 5.15984 18.0338C4.8652 17.6803 4.91297 17.1548 5.26653 16.8601L8.49831 14.167H7.2656C6.59479 14.167 6.04114 14.167 5.59014 14.1302C5.12173 14.0919 4.69114 14.0098 4.2867 13.8037C3.65949 13.4841 3.14956 12.9742 2.82998 12.347C2.6239 11.9425 2.54176 11.5119 2.50349 11.0435C2.46665 10.5925 2.46665 10.0389 2.46666 9.36808L2.46666 3.33366C2.00643 3.33366 1.63333 2.96056 1.63333 2.50033ZM10.8 5.00033C11.2602 5.00033 11.6333 5.37342 11.6333 5.83366V10.0003C11.6333 10.4606 11.2602 10.8337 10.8 10.8337C10.3398 10.8337 9.96667 10.4606 9.96667 10.0003V5.83366C9.96667 5.37342 10.3398 5.00033 10.8 5.00033ZM7.46666 6.66699C7.9269 6.66699 8.3 7.04009 8.3 7.50033V10.0003C8.3 10.4606 7.9269 10.8337 7.46666 10.8337C7.00643 10.8337 6.63333 10.4606 6.63333 10.0003V7.50033C6.63333 7.04009 7.00643 6.66699 7.46666 6.66699ZM14.9667 9.16699C14.9667 8.70676 14.5936 8.33366 14.1333 8.33366C13.6731 8.33366 13.3 8.70676 13.3 9.16699V10.0003C13.3 10.4606 13.6731 10.8337 14.1333 10.8337C14.5936 10.8337 14.9667 10.4606 14.9667 10.0003V9.16699Z" fill="currentColor"/>
</svg>
