<svg width="20" height="20" viewBox="0 0 20 20" fill="none" xmlns="http://www.w3.org/2000/svg">
<path fill-rule="evenodd" clip-rule="evenodd" d="M10 2.49967C5.85786 2.49967 2.49999 5.85754 2.49999 9.99967C2.49999 14.1418 5.85786 17.4997 10 17.4997C14.1421 17.4997 17.5 14.1418 17.5 9.99967C17.5 5.85754 14.1421 2.49967 10 2.49967ZM0.833328 9.99967C0.833328 4.93706 4.93738 0.833008 10 0.833008C15.0626 0.833008 19.1667 4.93706 19.1667 9.99967C19.1667 15.0623 15.0626 19.1663 10 19.1663C4.93738 19.1663 0.833328 15.0623 0.833328 9.99967Z" fill="currentColor"/>
<path fill-rule="evenodd" clip-rule="evenodd" d="M10 5.83301C7.69881 5.83301 5.83333 7.69849 5.83333 9.99967C5.83333 12.3009 7.69881 14.1663 10 14.1663C12.3012 14.1663 14.1667 12.3009 14.1667 9.99967C14.1667 7.69849 12.3012 5.83301 10 5.83301ZM4.16666 9.99967C4.16666 6.77801 6.77833 4.16634 10 4.16634C13.2217 4.16634 15.8333 6.77801 15.8333 9.99967C15.8333 13.2213 13.2217 15.833 10 15.833C6.77833 15.833 4.16666 13.2213 4.16666 9.99967Z" fill="currentColor"/>
<path fill-rule="evenodd" clip-rule="evenodd" d="M7.5 9.99967C7.5 8.61896 8.61928 7.49967 10 7.49967C11.3807 7.49967 12.5 8.61896 12.5 9.99967C12.5 11.3804 11.3807 12.4997 10 12.4997C8.61928 12.4997 7.5 11.3804 7.5 9.99967Z" fill="currentColor"/>
</svg>
