<svg width="21" height="20" viewBox="0 0 21 20" fill="none" xmlns="http://www.w3.org/2000/svg">
<path fill-rule="evenodd" clip-rule="evenodd" d="M14.6554 12.8237C14.862 12.4124 15.3629 12.2465 15.7741 12.4531C17.1361 13.1373 18.2875 14.2266 19.1207 15.5688C19.247 15.7722 19.4307 16.0437 19.4878 16.4117C19.5488 16.8057 19.4419 17.1825 19.2825 17.469C19.1232 17.7554 18.8595 18.045 18.4925 18.2009C18.1436 18.3492 17.7641 18.3337 17.4834 18.3337C17.0231 18.3337 16.65 17.9606 16.65 17.5003C16.65 17.0401 17.0231 16.667 17.4834 16.667C17.6627 16.667 17.757 16.6665 17.8243 16.6619L17.826 16.6588C17.842 16.6301 17.7209 16.4739 17.7047 16.4479C17.0195 15.344 16.0904 14.4771 15.026 13.9424C14.6147 13.7358 14.4488 13.2349 14.6554 12.8237Z" fill="currentColor"/>
<path fill-rule="evenodd" clip-rule="evenodd" d="M12.9871 2.51926C13.1919 2.10712 13.6921 1.93904 14.1042 2.14386C15.6114 2.89285 16.65 4.44953 16.65 6.25033C16.65 8.05113 15.6114 9.6078 14.1042 10.3568C13.6921 10.5616 13.1919 10.3935 12.9871 9.98139C12.7823 9.56924 12.9504 9.06908 13.3625 8.86426C14.3249 8.386 14.9834 7.39429 14.9834 6.25033C14.9834 5.10636 14.3249 4.11466 13.3625 3.63639C12.9504 3.43157 12.7823 2.93141 12.9871 2.51926Z" fill="currentColor"/>
<path fill-rule="evenodd" clip-rule="evenodd" d="M3.73337 6.25033C3.73337 3.71902 5.7854 1.66699 8.31671 1.66699C10.848 1.66699 12.9 3.71902 12.9 6.25033C12.9 8.78163 10.848 10.8337 8.31671 10.8337C5.7854 10.8337 3.73337 8.78163 3.73337 6.25033Z" fill="currentColor"/>
<path fill-rule="evenodd" clip-rule="evenodd" d="M8.31671 11.667C10.9802 11.667 13.3613 13.1705 14.8143 15.3504C14.9423 15.5425 15.0788 15.7473 15.1743 15.942C15.2891 16.1763 15.3716 16.4454 15.3523 16.7669C15.337 17.0232 15.2519 17.2611 15.1508 17.4499C15.0497 17.6388 14.8989 17.8414 14.694 17.9963C14.4196 18.2039 14.1238 18.2766 13.8624 18.307C13.6322 18.3338 13.3596 18.3337 13.085 18.3337C9.90736 18.333 6.72728 18.333 3.54843 18.3337C3.27381 18.3337 3.00119 18.3338 2.77099 18.307C2.50957 18.2766 2.21383 18.2039 1.93941 17.9963C1.73455 17.8414 1.58373 17.6388 1.48262 17.4499C1.3815 17.2611 1.29645 17.0232 1.28106 16.7669C1.26177 16.4454 1.34427 16.1763 1.45914 15.942C1.55458 15.7473 1.69109 15.5425 1.8191 15.3504C3.27209 13.1704 5.65318 11.667 8.31671 11.667Z" fill="currentColor"/>
</svg>
