<svg width="24" height="24" viewBox="0 0 24 24" fill="none" xmlns="http://www.w3.org/2000/svg">
<path fill-rule="evenodd" clip-rule="evenodd" d="M9.8367 0H14.0604C19.4708 0 23.8971 4.44533 23.8971 9.879V14.1209C23.8971 19.5546 19.4708 23.9999 14.0604 23.9999H9.8367C4.42629 23.9999 0 19.5546 0 14.1209V9.879C0 4.44533 4.42629 0 9.8367 0ZM23.4184 12.1482V11.8517H20.059C15.6794 11.8517 12.0962 8.25308 12.0962 3.85466V0.480728H11.801V3.85466C11.801 8.25308 8.21767 11.8517 3.83814 11.8517H0.478669V12.1482H3.83814C8.21767 12.1482 11.801 15.7469 11.801 20.1452V23.5192H12.0962V20.1452C12.0962 15.7469 15.6794 12.1482 20.059 12.1482H23.4184Z" fill="#05A85A"/>
</svg>
